<?xml version="1.0" encoding="utf-8"?>
<!-- Generator: Adobe Illustrator 22.1.0, SVG Export Plug-In . SVG Version: 6.00 Build 0)  -->
<svg version="1.1" id="Layer_1" xmlns="http://www.w3.org/2000/svg" xmlns:xlink="http://www.w3.org/1999/xlink" x="0px" y="0px"
	 viewBox="0 0 18 10" style="enable-background:new 0 0 18 10;" xml:space="preserve">
<style type="text/css">
	.st0{fill:#949494;}
</style>
<path class="st0" d="M7.7,9.4L0.9,2.6c-0.6-0.5-0.6-1.5,0-2l0,0C1.5,0,2.4,0,3,0.6l6.8,6.8c0.6,0.6,0.6,1.5,0,2.1l0,0
	C9.2,10,8.3,10,7.7,9.4z"/>
<path class="st0" d="M9.8,9.5l6.8-6.8c0.6-0.6,0.6-1.5,0-2.1l0,0C16,0,15.1,0,14.5,0.6L7.8,7.4C7.2,8,7.2,8.9,7.8,9.5l0,0
	C8.3,10.1,9.3,10.1,9.8,9.5z"/>
</svg>
